<svg id="Layer_1" data-name="Layer 1" xmlns="http://www.w3.org/2000/svg" xmlns:xlink="http://www.w3.org/1999/xlink" viewBox="0 0 1194 291"><defs><style>.cls-1{fill:url(#linear-gradient);}.cls-2{fill:url(#linear-gradient-2);}.cls-3{fill:url(#linear-gradient-3);}.cls-4{font-size:84.99px;fill:#77bc40;font-family:Raleway-Bold, Raleway;font-weight:700;}.cls-5{letter-spacing:-0.06em;}.cls-6{letter-spacing:-0.02em;}.cls-7{letter-spacing:0em;}.cls-8{letter-spacing:0em;}.cls-9{letter-spacing:0em;}.cls-10{letter-spacing:0em;}.cls-11{letter-spacing:-0.02em;}.cls-12{letter-spacing:-0.01em;}.cls-13{letter-spacing:-0.01em;}</style><linearGradient id="linear-gradient" x1="176.59" y1="157.97" x2="242" y2="39.19" gradientUnits="userSpaceOnUse"><stop offset="0.32" stop-color="#77bc40"/><stop offset="0.45" stop-color="#67a138"/><stop offset="0.69" stop-color="#4f782b"/><stop offset="0.87" stop-color="#405f23"/><stop offset="0.99" stop-color="#3a5620"/></linearGradient><linearGradient id="linear-gradient-2" x1="123.72" y1="139.64" x2="156.05" y2="274.67" gradientUnits="userSpaceOnUse"><stop offset="0.42" stop-color="#77bc40"/><stop offset="0.54" stop-color="#67a138"/><stop offset="0.73" stop-color="#4f782b"/><stop offset="0.89" stop-color="#405f23"/><stop offset="0.99" stop-color="#3a5620"/></linearGradient><linearGradient id="linear-gradient-3" x1="122.4" y1="87.3" x2="56.49" y2="177.78" gradientUnits="userSpaceOnUse"><stop offset="0.36" stop-color="#77bc40"/><stop offset="0.49" stop-color="#67a138"/><stop offset="0.71" stop-color="#4f782b"/><stop offset="0.88" stop-color="#405f23"/><stop offset="0.99" stop-color="#3a5620"/></linearGradient></defs><path class="cls-1" d="M240.33,139.91a90.27,90.27,0,0,1-44.06,77.58c10-21.51,5.84-49,1.76-65.34a.35.35,0,0,0,0-.13c-.4-1.6-.8-3.09-1.18-4.46,0-.05,0-.11-.06-.19-1.31-4.2-3.19-9.3-3.19-9.3-6.06-15.36-18.67-34.29-40.91-57.58l27.51-25.72A90.31,90.31,0,0,1,240.33,139.91Z"/><path class="cls-2" d="M190.2,220.81A90.35,90.35,0,0,1,62,119.79c7.85,19.36,25.64,53.64,58.39,72.21a68.86,68.86,0,0,0,14.36,7h0l.17.05c1.84.55,16.46,4.69,29.08.41l.15-.05c12.38-4.22,29-13.12,33.11-31C199.6,184.93,199.6,205.35,190.2,220.81Z"/><path class="cls-3" d="M176.06,53.42,150,77.77h0c-.09.08-.18.19-.27.27q-2,2-3.85,4c-43.23,45.76-48.89,74.46-41.15,92.34C81.47,153.72,69.11,125.63,64.12,112A90.42,90.42,0,0,1,176.06,53.42Z"/><text class="cls-4" transform="translate(269.49 125.52)"><tspan class="cls-5">Vendor</tspan><tspan class="cls-7" x="291.43" y="0"> </tspan><tspan class="cls-8" x="0" y="101.99">Management</tspan><tspan class="cls-11" x="510.77" y="101.99">System</tspan></text></svg>